<svg width="40" height="40" viewBox="0 0 40 40" fill="none" xmlns="http://www.w3.org/2000/svg">
<path d="M30 26.25C30 29.1389 28.9861 31.5972 26.9583 33.625C24.9305 35.6528 22.4722 36.6666 19.5833 36.6666C16.6944 36.6666 14.2361 35.6528 12.2083 33.625C10.1805 31.5972 9.16666 29.1389 9.16666 26.25V10.8333C9.16666 8.74998 9.89582 6.97915 11.3542 5.52081C12.8125 4.06248 14.5833 3.33331 16.6667 3.33331C18.75 3.33331 20.5208 4.06248 21.9792 5.52081C23.4375 6.97915 24.1667 8.74998 24.1667 10.8333V25.4166C24.1667 26.6944 23.7222 27.7778 22.8333 28.6666C21.9444 29.5555 20.8611 30 19.5833 30C18.3055 30 17.2222 29.5555 16.3333 28.6666C15.4444 27.7778 15 26.6944 15 25.4166V9.99998H18.3333V25.4166C18.3333 25.7778 18.4514 26.0764 18.6875 26.3125C18.9236 26.5486 19.2222 26.6666 19.5833 26.6666C19.9444 26.6666 20.243 26.5486 20.4792 26.3125C20.7153 26.0764 20.8333 25.7778 20.8333 25.4166V10.8333C20.8055 9.66665 20.3958 8.68054 19.6042 7.87498C18.8125 7.06942 17.8333 6.66665 16.6667 6.66665C15.5 6.66665 14.5139 7.06942 13.7083 7.87498C12.9028 8.68054 12.5 9.66665 12.5 10.8333V26.25C12.4722 28.2222 13.1528 29.8958 14.5417 31.2708C15.9305 32.6458 17.6111 33.3333 19.5833 33.3333C21.5278 33.3333 23.1805 32.6458 24.5417 31.2708C25.9028 29.8958 26.6111 28.2222 26.6667 26.25V9.99998H30V26.25Z" fill="#1D1B20"/>
</svg>
