<svg width="25" height="25" viewBox="0 0 25 25" fill="none" xmlns="http://www.w3.org/2000/svg">
<path d="M5.20833 21.875H19.7917C20.9423 21.875 21.875 20.9423 21.875 19.7917V5.20833C21.875 4.05774 20.9423 3.125 19.7917 3.125H5.20833C4.05774 3.125 3.125 4.05774 3.125 5.20833V19.7917C3.125 20.9423 4.05774 21.875 5.20833 21.875ZM5.20833 21.875L16.6667 10.4167L21.875 15.625M10.4167 8.85417C10.4167 9.71711 9.71711 10.4167 8.85417 10.4167C7.99122 10.4167 7.29167 9.71711 7.29167 8.85417C7.29167 7.99122 7.99122 7.29167 8.85417 7.29167C9.71711 7.29167 10.4167 7.99122 10.4167 8.85417Z" stroke="#1E1E1E" stroke-width="2" stroke-linecap="round" stroke-linejoin="round"/>
</svg>
