<svg width="343" height="50" viewBox="0 0 343 50" fill="none" xmlns="http://www.w3.org/2000/svg">
<rect width="343" height="50" rx="5" fill="#FEE500"/>
<path fill-rule="evenodd" clip-rule="evenodd" d="M36 15.9747C30.753 15.9747 26.5 19.2882 26.5 23.3748C26.5 25.9164 28.145 28.1569 30.65 29.4895L29.596 33.372C29.5029 33.7151 29.892 33.9885 30.1907 33.7897L34.8108 30.7149C35.2007 30.7529 35.5969 30.775 36 30.775C41.2466 30.775 45.4999 27.4617 45.4999 23.3748C45.4999 19.2882 41.2466 15.9747 36 15.9747Z" fill="#391B1B"/>
<path d="M123.242 19.7455C123.234 24.0112 122.07 27.6752 116.867 30.2612L115.913 28.9487C118.359 27.7455 119.82 26.3315 120.64 24.6596L116.242 25.0737L116.023 23.5737L121.163 23.2534C121.343 22.5893 121.46 21.894 121.515 21.1518H116.757V19.7455H123.242ZM125.226 32.4487V18.3549H126.96V23.8862H129.054V25.308H126.96V32.4487H125.226ZM136.91 19.7455C136.902 24.0112 135.738 27.6752 130.535 30.2612L129.582 28.9487C132.027 27.7455 133.488 26.3315 134.308 24.6596L129.91 25.0737L129.691 23.5737L134.832 23.2534C135.011 22.5893 135.128 21.894 135.183 21.1518H130.425V19.7455H136.91ZM138.894 32.4487V18.3549H140.628V23.8862H142.722V25.308H140.628V32.4487H138.894ZM149.656 19.1518C152.687 19.1596 154.929 20.6674 154.922 22.9643C154.929 25.0815 153.109 26.4955 150.515 26.7534V29.3393H156.14V30.7612H143.234V29.3393H148.797V26.7534C146.234 26.4955 144.414 25.0815 144.422 22.9643C144.414 20.6674 146.648 19.1596 149.656 19.1518ZM146.125 22.9643C146.117 24.4877 147.593 25.4018 149.656 25.4018C151.75 25.4018 153.218 24.4877 153.218 22.9643C153.218 21.4877 151.75 20.5502 149.656 20.558C147.593 20.5502 146.117 21.4877 146.125 22.9643ZM169.808 29.4018V30.8393H156.902V29.4018H162.465V27.1049H158.433V22.4799H166.558V20.7299H158.402V19.3237H168.277V23.8549H160.168V25.683H168.605V27.1049H164.183V29.4018H169.808ZM186.395 18.3549V32.4799H184.738V18.3549H186.395ZM174.067 28.2612C176.988 26.5346 178.332 24.3237 178.598 21.4799H174.817V20.0737H180.317C180.317 20.7846 180.27 21.4799 180.168 22.1518H181.817V18.6987H183.473V31.808H181.817V27.0893H179.613V25.6674H181.817V23.5737H179.871C179.199 25.9174 177.731 27.933 175.082 29.4955L174.067 28.2612ZM200.75 25.2924V26.6987H187.875V25.2924H193.438V23.3237H195.157V25.2924H200.75ZM188.578 22.7768C191.493 22.4096 193.407 20.808 193.407 19.1205V18.5893H195.172V19.1205C195.172 20.8471 197.071 22.4096 200.016 22.7768L199.344 24.1362C197.032 23.7846 195.18 22.7377 194.282 21.2534C193.375 22.7299 191.532 23.7846 189.203 24.1362L188.578 22.7768ZM189.297 29.183V27.8237H199.172V32.4799H197.438V29.183H189.297ZM212.606 18.3549V23.9799H214.778V25.4174H212.606V32.4799H210.887V18.3549H212.606ZM201.465 21.9174V20.5268H204.809V18.558H206.543V20.5268H209.793V21.9174H201.465ZM202.122 26.1674C202.106 24.2143 203.622 22.8315 205.684 22.8393C207.715 22.8315 209.223 24.2143 209.231 26.1674C209.223 28.1127 207.715 29.4799 205.684 29.4799C203.622 29.4799 202.106 28.1127 202.122 26.1674ZM203.778 26.1674C203.77 27.3159 204.575 28.0502 205.684 28.0424C206.77 28.0502 207.559 27.3159 207.575 26.1674C207.559 25.019 206.77 24.2612 205.684 24.2612C204.575 24.2612 203.77 25.019 203.778 26.1674ZM227.008 18.3549V32.4799H225.258V18.3549H227.008ZM215.305 28.5893C219.008 26.8315 220.712 24.4409 221.024 21.2299H216.024V19.8549H222.79C222.79 24.058 221.157 27.6284 216.212 29.9799L215.305 28.5893Z" fill="#383B3B"/>
</svg>
