<svg width="47" height="50" viewBox="0 0 47 50" fill="none" xmlns="http://www.w3.org/2000/svg">
<g clip-path="url(#clip0_189_1219)">
<path d="M32.8865 18.5614L28.0503 23.7174C26.967 24.8724 26.3189 26.3263 26.1158 27.8422L20.3123 21.655C21.7728 21.4385 23.1173 20.7269 24.1813 19.5926L29.0175 14.4366L32.8865 18.5614ZM37.7228 19.5926L28.0503 9.28066C27.5183 8.7135 26.6478 8.7135 26.1158 9.28066C25.5838 9.84781 25.5838 10.7759 26.1158 11.3431L27.083 12.3742L22.2468 17.5302C20.6412 19.242 18.0489 19.242 16.4433 17.5302L14.5088 19.5926L20.2833 25.7489L13.5126 32.9673V35.0297L15.4471 35.0297L22.2178 27.8113L28.0503 34.0294L29.9848 31.967C28.3791 30.2552 28.3791 27.4916 29.9848 25.7798L34.821 20.6238L35.7883 21.655C36.3202 22.2222 37.1908 22.2222 37.7228 21.655C38.2547 21.0879 38.2547 20.1598 37.7228 19.5926Z" fill="white"/>
</g>
<defs>
<clipPath id="clip0_189_1219">
<rect width="33.9321" height="33.9321" fill="white" transform="matrix(0.684129 0.729361 -0.684129 0.729361 23.2139 0)"/>
</clipPath>
</defs>
</svg>
