<svg width="46" height="46" viewBox="0 0 46 46" fill="none" xmlns="http://www.w3.org/2000/svg">
<path d="M27.9917 9.02003L17.264 9.02092C17.0014 9.02089 16.7412 9.0726 16.4985 9.17311C16.2559 9.27362 16.0353 9.42096 15.8496 9.6067C15.6639 9.79245 15.5165 10.013 15.416 10.2557C15.3155 10.4983 15.2638 10.7585 15.2638 11.0211L15.2788 20.5167C14.0414 21.1637 11.5338 22.9589 11.1016 27.0168C11.0713 27.296 11.1001 27.5784 11.1862 27.8457C11.2723 28.113 11.4137 28.3592 11.6012 28.5682C11.7887 28.7772 12.0181 28.9444 12.2746 29.0589C12.531 29.1734 12.8086 29.2326 13.0895 29.2327L21.6295 29.2309L21.6269 36.7696C21.6269 37.0349 21.7323 37.2894 21.9199 37.4771C22.1076 37.6647 22.3621 37.7701 22.6274 37.7701C22.8928 37.7701 23.1473 37.6647 23.3349 37.4771C23.5226 37.2894 23.628 37.0349 23.628 36.7696L23.6253 29.2309L32.1619 29.2309C32.4249 29.2315 32.6854 29.1801 32.9285 29.0799C33.1716 28.9796 33.3926 28.8324 33.5788 28.6467C33.6123 28.6131 33.6451 28.5804 33.6786 28.5468C33.8663 28.3312 34.0053 28.0778 34.0863 27.8037C34.1673 27.5297 34.1883 27.2414 34.148 26.9584C33.577 22.9156 31.5343 21.207 30.0105 20.4893L29.9928 11.0194C29.9928 10.7567 29.9409 10.4966 29.8403 10.254C29.7397 10.0113 29.5923 9.79086 29.4064 9.60519C29.2206 9.41953 29 9.27229 28.7573 9.17189C28.5146 9.07149 28.2544 9.01989 27.9917 9.02003ZM27.9917 11.0211L28.0085 21.1619C28.0089 21.3714 28.0751 21.5755 28.1977 21.7453C28.3203 21.9152 28.4931 22.0422 28.6918 22.1086C31.2011 22.9456 31.9436 25.6786 32.1637 27.2316L13.0886 27.2307C13.2954 25.302 14.09 24.0531 14.8714 23.2718C15.3604 22.7692 15.9494 22.3748 16.6002 22.1139C16.7998 22.0474 16.9733 21.9198 17.0962 21.749C17.219 21.5783 17.2848 21.3732 17.2844 21.1628L17.264 11.0203L27.9908 11.0203L27.9917 11.0211Z" fill="#343330"/>
</svg>
